<svg xmlns="http://www.w3.org/2000/svg" viewBox="0 0 64 64" width="64" height="64">
  <defs>
    <linearGradient id="cover" x1="0%" y1="0%" x2="100%" y2="100%">
      <stop offset="0%" style="stop-color:#3b82f6;stop-opacity:1" />
      <stop offset="100%" style="stop-color:#1d4ed8;stop-opacity:1" />
    </linearGradient>
  </defs>
  <!-- Left page -->
  <path d="M6 12 C6 10 8 8 10 8 L30 8 C31 8 32 9 32 10 L32 54 C32 55 31 56 30 56 L10 56 C8 56 6 54 6 52 Z" fill="#f8fafc" stroke="#94a3b8" stroke-width="1.5"/>
  <!-- Left page lines -->
  <line x1="12" y1="18" x2="26" y2="18" stroke="#cbd5e1" stroke-width="1" stroke-linecap="round"/>
  <line x1="12" y1="24" x2="26" y2="24" stroke="#cbd5e1" stroke-width="1" stroke-linecap="round"/>
  <line x1="12" y1="30" x2="22" y2="30" stroke="#cbd5e1" stroke-width="1" stroke-linecap="round"/>
  <line x1="12" y1="36" x2="26" y2="36" stroke="#cbd5e1" stroke-width="1" stroke-linecap="round"/>
  <line x1="12" y1="42" x2="24" y2="42" stroke="#cbd5e1" stroke-width="1" stroke-linecap="round"/>
  <!-- Right page -->
  <path d="M32 10 C32 9 33 8 34 8 L54 8 C56 8 58 10 58 12 L58 52 C58 54 56 56 54 56 L34 56 C33 56 32 55 32 54 Z" fill="#f1f5f9" stroke="#94a3b8" stroke-width="1.5"/>
  <!-- Right page lines -->
  <line x1="38" y1="18" x2="52" y2="18" stroke="#cbd5e1" stroke-width="1" stroke-linecap="round"/>
  <line x1="38" y1="24" x2="52" y2="24" stroke="#cbd5e1" stroke-width="1" stroke-linecap="round"/>
  <line x1="38" y1="30" x2="48" y2="30" stroke="#cbd5e1" stroke-width="1" stroke-linecap="round"/>
  <line x1="38" y1="36" x2="52" y2="36" stroke="#cbd5e1" stroke-width="1" stroke-linecap="round"/>
  <line x1="38" y1="42" x2="50" y2="42" stroke="#cbd5e1" stroke-width="1" stroke-linecap="round"/>
  <!-- Spine shadow -->
  <line x1="32" y1="8" x2="32" y2="56" stroke="#64748b" stroke-width="2"/>
  <!-- Flipping page effect -->
  <path d="M32 10 L32 54 Q44 50 48 32 Q44 14 32 10 Z" fill="url(#cover)" opacity="0.15"/>
  <!-- Curling page corner -->
  <path d="M52 48 Q54 52 50 56 L54 56 C56 56 58 54 58 52 L58 48 Z" fill="#e2e8f0" stroke="#94a3b8" stroke-width="0.5"/>
</svg>
